<svg id="svg" xmlns="http://www.w3.org/2000/svg" xmlns:xlink="http://www.w3.org/1999/xlink" width="400" height="400" viewBox="0, 0, 400,400" version="1.1"><g id="svgg"><path id="path0" d="M163.059 32.000 L 147.059 48.000 111.718 48.000 C 45.993 48.000,48.000 43.211,48.000 200.000 C 48.000 330.838,49.103 339.573,66.629 347.559 C 80.095 353.694,319.905 353.694,333.371 347.559 C 350.897 339.573,352.000 330.838,352.000 200.000 C 352.000 43.211,354.007 48.000,288.282 48.000 L 252.941 48.000 236.941 32.000 C 222.349 17.408,219.098 16.000,200.000 16.000 C 180.902 16.000,177.651 17.408,163.059 32.000 M211.462 58.897 C 216.556 67.999,210.070 80.000,200.058 80.000 C 189.951 80.000,183.514 68.382,188.480 59.103 C 193.328 50.045,206.442 49.927,211.462 58.897 M280.000 134.000 L 280.000 148.000 200.000 148.000 L 120.000 148.000 120.000 134.000 L 120.000 120.000 200.000 120.000 L 280.000 120.000 280.000 134.000 M246.000 200.000 L 246.000 214.000 184.000 214.000 C 122.173 214.000,121.996 213.974,120.684 204.709 C 117.771 184.154,119.220 183.707,184.915 184.895 L 246.000 186.000 246.000 200.000 M280.000 266.000 L 280.000 280.000 200.000 280.000 L 120.000 280.000 120.000 266.000 L 120.000 252.000 200.000 252.000 L 280.000 252.000 280.000 266.000 " stroke="none" fill="#ffffff" fill-rule="evenodd"></path></g></svg>