<svg id="svg" xmlns="http://www.w3.org/2000/svg" xmlns:xlink="http://www.w3.org/1999/xlink" width="400" height="400" viewBox="0, 0, 400,400"><g id="svgg"><path id="path0" d="M186.000 13.999 C 165.316 24.581,144.000 67.421,144.000 98.409 C 144.000 110.628,142.938 112.202,136.151 110.048 C 112.712 102.609,96.247 137.629,93.095 201.627 C 90.779 248.656,94.201 259.509,109.493 253.641 C 114.884 251.572,116.000 244.482,116.000 212.285 C 116.000 186.719,118.250 166.821,122.578 154.120 L 129.156 134.815 135.389 146.408 C 139.427 153.918,142.191 172.185,143.238 198.287 C 145.154 246.047,144.970 246.344,103.750 262.096 C 66.945 276.159,59.392 287.077,60.923 324.000 L 62.000 350.000 75.000 351.253 C 82.150 351.943,88.000 353.073,88.000 353.765 C 88.000 354.457,85.210 361.700,81.800 369.861 C 70.677 396.482,69.548 396.252,205.538 395.058 L 326.000 394.000 325.472 382.000 C 325.181 375.400,323.621 365.950,322.005 361.000 C 319.381 352.963,320.401 352.000,331.533 352.000 L 344.000 352.000 344.000 322.223 C 344.000 285.658,337.963 277.369,300.000 261.817 C 262.894 246.615,264.000 248.387,264.000 204.107 C 264.000 115.962,286.886 120.292,291.624 209.334 C 293.816 250.541,294.619 254.000,302.000 254.000 C 309.477 254.000,310.073 250.959,311.123 207.478 C 312.722 141.207,297.296 102.544,271.904 109.184 C 265.793 110.782,264.186 107.790,261.889 90.544 C 254.122 32.219,219.213 -2.992,186.000 13.999 M222.821 95.529 C 237.983 118.083,239.954 134.111,239.978 235.000 L 240.000 332.000 228.000 332.000 C 216.198 332.000,215.999 331.653,215.939 311.000 C 215.817 269.200,194.786 265.600,192.809 307.040 C 191.630 331.748,191.499 332.000,179.809 332.000 L 168.000 332.000 168.000 229.872 C 168.000 120.824,169.692 109.488,189.044 88.888 C 200.466 76.731,211.663 78.933,222.821 95.529 M183.341 134.692 C 174.923 136.921,170.657 147.563,175.731 153.676 C 183.482 163.015,229.814 158.999,231.277 148.862 C 233.192 135.599,208.016 128.157,183.341 134.692 M144.000 302.000 L 144.000 332.000 114.000 332.000 L 84.000 332.000 84.000 316.620 C 84.000 297.433,107.751 279.555,143.000 272.208 C 143.550 272.094,144.000 285.500,144.000 302.000 M317.000 298.969 C 321.022 302.572,324.000 310.932,324.000 318.620 L 324.000 332.000 294.000 332.000 L 264.000 332.000 264.000 302.220 L 264.000 272.440 287.000 282.570 C 299.650 288.141,313.150 295.521,317.000 298.969 " stroke="none" fill="#ffffff" fill-rule="evenodd"></path></g></svg>