<svg id="svg" xmlns="http://www.w3.org/2000/svg" xmlns:xlink="http://www.w3.org/1999/xlink" width="400" height="400" viewBox="0, 0, 400,400"><g id="svgg"><path id="path0" d="M61.600 29.600 L 48.000 43.200 48.089 196.600 C 48.170 335.903,48.813 350.784,55.089 358.532 C 70.664 377.760,96.000 382.385,96.000 366.000 C 96.000 358.947,93.825 356.000,88.620 356.000 C 69.721 356.000,61.424 327.197,76.411 313.620 C 84.086 306.667,93.020 305.889,178.411 304.734 L 272.000 303.468 272.000 159.734 L 272.000 16.000 173.600 16.000 L 75.200 16.000 61.600 29.600 M288.000 160.000 L 288.000 304.000 320.000 304.000 L 352.000 304.000 352.000 160.000 L 352.000 16.000 320.000 16.000 L 288.000 16.000 288.000 160.000 M112.000 360.000 C 112.000 404.425,115.546 408.948,137.091 392.000 C 142.685 387.600,149.394 384.000,152.000 384.000 C 154.606 384.000,161.315 387.600,166.909 392.000 C 188.454 408.948,192.000 404.425,192.000 360.000 L 192.000 320.000 152.000 320.000 L 112.000 320.000 112.000 360.000 M208.000 368.000 C 208.000 375.704,210.667 376.000,280.000 376.000 C 349.333 376.000,352.000 375.704,352.000 368.000 C 352.000 360.296,349.333 360.000,280.000 360.000 C 210.667 360.000,208.000 360.296,208.000 368.000 " stroke="none" fill="#ffffff" fill-rule="evenodd"></path></g></svg>