<svg id="svg" xmlns="http://www.w3.org/2000/svg" xmlns:xlink="http://www.w3.org/1999/xlink" width="400" height="400" viewBox="0, 0, 400,400"><g id="svgg"><path id="path0" d="M267.526 46.012 C 238.688 61.684,238.308 95.669,266.539 134.118 C 291.747 168.449,297.032 168.213,322.256 131.628 C 362.202 73.693,324.659 14.964,267.526 46.012 M310.182 69.818 C 323.070 82.706,322.568 90.933,307.654 111.212 C 292.669 131.589,294.640 131.576,280.025 111.400 C 256.190 78.496,282.534 42.171,310.182 69.818 M78.000 168.411 C 39.466 180.260,16.427 233.040,31.958 273.889 C 38.143 290.158,100.020 372.000,106.134 372.000 C 111.361 372.000,160.885 308.517,177.110 281.017 C 213.028 220.141,148.436 146.754,78.000 168.411 M268.643 170.400 C 257.399 178.275,258.373 193.481,270.229 195.177 C 282.070 196.871,291.939 178.224,283.610 169.895 C 278.452 164.738,276.640 164.799,268.643 170.400 M131.845 193.920 C 173.416 215.417,173.388 247.817,131.752 305.074 L 106.524 339.767 79.461 302.981 C 47.930 260.122,43.109 243.960,54.986 220.941 C 70.076 191.697,104.288 179.669,131.845 193.920 M236.800 208.800 C 227.814 217.786,230.914 232.000,241.859 232.000 C 252.567 232.000,262.081 219.193,258.434 209.687 C 255.772 202.752,243.357 202.243,236.800 208.800 M83.534 219.573 C 70.312 230.280,70.312 257.720,83.534 268.427 C 115.119 294.003,156.739 254.359,131.710 222.539 C 121.425 209.465,97.813 208.011,83.534 219.573 M229.238 246.544 C 225.842 255.392,232.906 265.716,243.426 267.281 C 255.073 269.013,258.810 257.735,249.865 247.851 C 241.212 238.289,232.614 237.745,229.238 246.544 M260.000 285.200 C 260.000 296.279,266.951 304.000,276.926 304.000 C 286.425 304.000,289.797 294.832,284.167 284.313 C 277.742 272.306,260.000 272.958,260.000 285.200 M293.859 312.227 C 285.875 325.147,303.313 344.869,314.507 335.579 C 321.997 329.363,321.401 322.508,312.685 314.620 C 304.273 307.007,297.609 306.160,293.859 312.227 M324.747 357.000 C 325.792 367.845,327.649 370.000,335.945 370.000 C 347.255 370.000,351.529 359.071,343.841 349.808 C 334.406 338.440,323.358 342.602,324.747 357.000 M137.545 353.745 C 133.742 363.653,138.944 372.005,148.874 371.939 C 161.846 371.852,169.018 366.258,167.361 357.521 C 165.480 347.606,141.086 344.516,137.545 353.745 M185.447 354.000 C 181.676 363.827,187.096 372.000,197.385 372.000 C 209.053 372.000,217.051 363.394,213.641 354.507 C 210.437 346.157,188.607 345.764,185.447 354.000 M230.442 354.292 C 226.745 363.925,235.583 372.606,247.658 371.202 C 255.702 370.267,258.000 367.778,258.000 360.000 C 258.000 347.500,234.885 342.712,230.442 354.292 M278.856 350.477 C 273.181 356.153,276.175 367.516,284.000 370.000 C 297.066 374.147,308.635 368.498,307.233 358.656 C 305.986 349.900,285.374 343.959,278.856 350.477 " stroke="none" fill="#ffffff" fill-rule="evenodd"></path></g></svg>