<svg id="svg" xmlns="http://www.w3.org/2000/svg" xmlns:xlink="http://www.w3.org/1999/xlink" width="400" height="400" viewBox="0, 0, 400,400"><g id="svgg"><path id="path0" d="M182.353 35.450 C 181.548 36.753,180.028 44.305,178.977 52.232 C 175.910 75.349,159.975 78.447,142.968 59.233 L 131.108 45.833 118.030 52.778 C 101.639 61.481,100.844 63.633,107.155 82.199 L 112.290 97.306 104.798 104.798 L 97.306 112.290 82.199 107.155 C 63.633 100.844,61.481 101.639,52.778 118.030 L 45.833 131.108 59.233 142.968 C 78.967 160.435,75.446 175.487,50.709 179.409 L 34.722 181.944 34.722 200.000 L 34.722 218.056 50.709 220.591 C 75.446 224.513,78.967 239.565,59.233 257.032 L 45.833 268.892 52.778 281.970 C 61.481 298.361,63.633 299.156,82.199 292.845 L 97.306 287.710 104.855 295.259 L 112.404 302.808 107.591 316.360 C 101.010 334.890,101.420 337.544,111.806 343.634 C 129.491 354.005,130.518 353.893,143.277 340.192 C 160.908 321.259,175.549 324.946,179.409 349.291 L 181.944 365.278 200.000 365.278 L 218.056 365.278 220.591 349.291 C 224.493 324.686,239.596 321.032,256.763 340.540 L 268.354 353.712 281.741 347.026 C 298.378 338.717,299.210 336.527,292.845 317.801 L 287.710 302.694 295.202 295.202 L 302.694 287.710 317.801 292.845 C 336.367 299.156,338.519 298.361,347.222 281.970 L 354.167 268.892 340.767 257.032 C 321.033 239.565,324.554 224.513,349.291 220.591 L 365.278 218.056 365.278 200.000 L 365.278 181.944 349.291 179.409 C 324.554 175.487,321.033 160.435,340.767 142.968 L 354.167 131.108 347.222 118.030 C 338.519 101.639,336.367 100.844,317.801 107.155 L 302.694 112.290 295.202 104.798 L 287.710 97.306 292.845 82.199 C 299.156 63.633,298.361 61.481,281.970 52.778 L 268.892 45.833 257.032 59.233 C 239.565 78.967,224.513 75.446,220.591 50.709 L 218.056 34.722 200.936 33.902 C 191.521 33.450,183.158 34.147,182.353 35.450 M183.333 127.100 L 183.333 151.422 174.945 155.135 C 161.797 160.954,152.288 175.617,150.322 193.102 L 148.611 208.313 129.553 219.434 C 103.341 234.730,102.887 234.390,102.816 199.410 C 102.727 155.600,143.411 105.551,181.250 102.923 C 182.396 102.843,183.333 113.723,183.333 127.100 M243.584 112.845 C 282.120 131.142,306.439 183.381,295.471 224.306 C 293.270 232.522,292.676 232.406,270.447 219.434 L 251.389 208.313 249.678 193.102 C 247.712 175.617,238.203 160.954,225.055 155.135 L 216.667 151.422 216.667 126.913 C 216.667 98.868,215.466 99.495,243.584 112.845 M178.225 246.064 C 187.990 251.114,212.885 250.338,226.389 244.562 C 233.944 241.331,257.808 250.944,272.020 262.945 C 274.568 265.097,257.199 280.297,243.548 287.863 C 222.079 299.761,177.921 299.761,156.452 287.863 C 141.025 279.313,124.605 263.823,129.167 262.122 C 130.694 261.553,138.819 256.817,147.222 251.597 C 165.015 240.546,166.902 240.209,178.225 246.064 " stroke="none" fill="#ffffff" fill-rule="evenodd"></path></g></svg>